<svg xmlns="http://www.w3.org/2000/svg" xmlns:xlink="http://www.w3.org/1999/xlink" version="1.1" data-diagram-type="DESCRIPTION" style="width:633px;height:436px;background:#FFFFFF;" width="633px" height="436px" viewBox="0 0 633 436" zoomAndPan="magnify" preserveAspectRatio="none" contentStyleType="text/css"><?plantuml 1.2026.8beta1?><defs/><g font-family="sans-serif" lengthAdjust="spacing"><!--cluster PKG-11 AI Model Lifecycle--><g class="cluster" data-qualified-name="PKG-11 AI Model Lifecycle" id="ent0005" data-source-line="6"><rect x="229.22" y="7" width="390.38" height="307" fill="none" style="stroke:#181818;stroke-width:1;" rx="2.5" ry="2.5"/><text x="321.536" y="21.995" fill="#000" font-size="14" textLength="205.748" font-weight="700">PKG-11 AI Model Lifecycle</text></g><!--entity UC1121--><g class="entity" data-qualified-name="PKG-11 AI Model Lifecycle.UC1121" id="ent0006" data-source-line="7"><ellipse cx="424.407" cy="73.001" rx="144.157" ry="31.231" fill="#F1F1F1" style="stroke:#181818;stroke-width:0.5;"/><text x="402.963" y="61.353" fill="#000" font-size="14" textLength="42.889">UC-31</text><text x="289.258" y="77.65" fill="#000" font-size="14" textLength="270.3">Signed Model Rollout to Fleet (Staged)</text></g><!--entity UC1131--><g class="entity" data-qualified-name="PKG-11 AI Model Lifecycle.UC1131" id="ent0007" data-source-line="8"><ellipse cx="424.408" cy="162.999" rx="70.468" ry="23.779" fill="#F1F1F1" style="stroke:#181818;stroke-width:0.5;"/><text x="402.964" y="156.094" fill="#000" font-size="14" textLength="42.889">UC-32</text><text x="371.494" y="172.391" fill="#000" font-size="14" textLength="105.827">Model Rollback</text></g><!--entity UC1151--><g class="entity" data-qualified-name="PKG-11 AI Model Lifecycle.UC1151" id="ent0008" data-source-line="9"><ellipse cx="424.41" cy="259.998" rx="179.19" ry="38.238" fill="#F1F1F1" style="stroke:#181818;stroke-width:0.5;"/><text x="402.966" y="248.35" fill="#000" font-size="14" textLength="42.889">UC-33</text><text x="252.995" y="264.646" fill="#000" font-size="14" textLength="342.829">Watchlist Cache Sync (SYS-03 sFTP, HSM-Bound)</text></g><!--entity AIG--><g class="entity" data-qualified-name="AIG" id="ent0001" data-source-line="2"><ellipse cx="95.605" cy="22.35" rx="8" ry="8" fill="#F1F1F1" style="stroke:#181818;stroke-width:0.5;"/><path d="M95.605,30.35 L95.605,57.35 M82.605,38.35 L108.605,38.35 M95.605,57.35 L82.605,72.35 M95.605,57.35 L108.605,72.35" style="stroke:#181818;stroke-width:0.5;" fill="none"/><text x="25.01" y="86.845" fill="#000" font-size="14" textLength="141.189">AI Governance Lead</text></g><!--entity OPS--><g class="entity" data-qualified-name="OPS" id="ent0002" data-source-line="3"><ellipse cx="95.607" cy="244.35" rx="8" ry="8" fill="#F1F1F1" style="stroke:#181818;stroke-width:0.5;"/><path d="M95.607,252.35 L95.607,279.35 M82.607,260.35 L108.607,260.35 M95.607,279.35 L82.607,294.35 M95.607,279.35 L108.607,294.35" style="stroke:#181818;stroke-width:0.5;" fill="none"/><text x="37.96" y="308.845" fill="#000" font-size="14" textLength="115.295">Operations Lead</text></g><!--entity SOC--><g class="entity" data-qualified-name="SOC" id="ent0003" data-source-line="4"><ellipse cx="95.609" cy="133.35" rx="8" ry="8" fill="#F1F1F1" style="stroke:#181818;stroke-width:0.5;"/><path d="M95.609,141.35 L95.609,168.35 M82.609,149.35 L108.609,149.35 M95.609,168.35 L82.609,183.35 M95.609,168.35 L108.609,183.35" style="stroke:#181818;stroke-width:0.5;" fill="none"/><text x="47.86" y="197.845" fill="#000" font-size="14" textLength="95.498">SOC Manager</text></g><!--entity NBA--><g class="entity" data-qualified-name="NBA" id="ent0004" data-source-line="5"><ellipse cx="95.609" cy="355.35" rx="8" ry="8" fill="#F1F1F1" style="stroke:#181818;stroke-width:0.5;"/><path d="M95.609,363.35 L95.609,390.35 M82.609,371.35 L108.609,371.35 M95.609,390.35 L82.609,405.35 M95.609,390.35 L108.609,405.35" style="stroke:#181818;stroke-width:0.5;" fill="none"/><text x="6" y="419.845" fill="#000" font-size="14" textLength="179.218">National Border Authority</text></g><!--link AIG to UC1121--><g class="link" data-entity-1="ent0001" data-entity-2="ent0006" id="lnk9" data-source-line="11" data-link-type="association"><path d="M166.31,56.48 C201.09,58.72 244.41,61.5 285.52,64.14" style="stroke:#181818;stroke-width:1;" fill="none" id="AIG-UC1121"/></g><!--link AIG to UC1131--><g class="link" data-entity-1="ent0001" data-entity-2="ent0007" id="lnk10" data-source-line="12" data-link-type="association"><path d="M156.26,90.49 C176.27,102.03 199.12,113.79 221.22,122 C265.36,138.41 317.51,148.78 357.78,154.99" style="stroke:#181818;stroke-width:1;" fill="none" id="AIG-UC1131"/></g><!--link OPS to UC1151--><g class="link" data-entity-1="ent0002" data-entity-2="ent0008" id="lnk11" data-source-line="13" data-link-type="association"><path d="M153.53,271.56 C180.32,270.42 213.88,268.98 248.13,267.51" style="stroke:#181818;stroke-width:1;" fill="none" id="OPS-UC1151"/></g><!--link SOC to UC1131--><g class="link" data-entity-1="ent0003" data-entity-2="ent0007" id="lnk12" data-source-line="14" data-link-type="association"><path d="M143.78,163 C198.84,163 290.41,163 353.68,163" style="stroke:#181818;stroke-width:1;" fill="none" id="SOC-UC1131"/></g><!--link NBA to UC1151--><g class="link" data-entity-1="ent0004" data-entity-2="ent0008" id="lnk13" data-source-line="15" data-link-type="association"><path d="M185.48,351.01 C232.16,333.15 289.18,311.34 335.69,293.55" style="stroke:#181818;stroke-width:1;" fill="none" id="NBA-UC1151"/></g><?plantuml-src NP3HIiGm54JV-nMNFYbOC5lyWBQmTN6xBSP5X7sv9dVRO4WaJOKY_hjfiNRrSPWpcPlHTFRWBJZLTXwaSYIyiYP2uQs3EDj1QJ_86JI2O4yeOy0Uibsv4FKxEPmY_MhN3LziNXTGeS6Mt6m5lLY7EOOQSkiaESW6trcd_3Y3XpoBfcFGj9eWRXxAXB5G39MLf66lpYH6eIc6psZeIM0Vg6EHfEnak6eDoH_oqMfjX_cJMqtauOhxS8wydckE1MCRzlU5pSciqLSKRxza-ezCJ-OPlUYqwZqKA3e2FXeHAbvuSfj2ltrgRk2ULqbk1tDHUSUYhoYi24cod72XGasOS561dLPSlJ3Dwdq3?></g></svg>