<svg xmlns="http://www.w3.org/2000/svg" xmlns:xlink="http://www.w3.org/1999/xlink" version="1.1" data-diagram-type="DESCRIPTION" style="width:555px;height:1231px;background:#FFFFFF;" width="555px" height="1231px" viewBox="0 0 555 1231" zoomAndPan="magnify" preserveAspectRatio="none" contentStyleType="text/css"><?plantuml 1.2026.8beta1?><defs/><g font-family="sans-serif" lengthAdjust="spacing"><!--cluster PKG-7 Account & Access--><g class="cluster" data-qualified-name="PKG-7 Account . Access" id="ent0008" data-source-line="9"><rect x="288.17" y="749" width="207.69" height="99" fill="none" style="stroke:#181818;stroke-width:1;" rx="2.5" ry="2.5"/><text x="295.888" y="763.995" fill="#000" font-size="14" textLength="192.254" font-weight="700">PKG-7 Account &amp; Access</text></g><!--cluster PKG-8 Team & Task Core--><g class="cluster" data-qualified-name="PKG-8 Team . Task Core" id="ent0010" data-source-line="12"><rect x="286.62" y="872" width="210.79" height="99" fill="none" style="stroke:#181818;stroke-width:1;" rx="2.5" ry="2.5"/><text x="294.08" y="886.995" fill="#000" font-size="14" textLength="195.87" font-weight="700">PKG-8 Team &amp; Task Core</text></g><!--cluster PKG-9 Collaboration--><g class="cluster" data-qualified-name="PKG-9 Collaboration" id="ent0012" data-source-line="15"><rect x="304.53" y="995" width="174.97" height="99" fill="none" style="stroke:#181818;stroke-width:1;" rx="2.5" ry="2.5"/><text x="312.499" y="1009.995" fill="#000" font-size="14" textLength="159.031" font-weight="700">PKG-9 Collaboration</text></g><!--cluster PKG-10 Platform--><g class="cluster" data-qualified-name="PKG-10 Platform" id="ent0014" data-source-line="18"><rect x="319.03" y="624" width="146.98" height="101" fill="none" style="stroke:#181818;stroke-width:1;" rx="2.5" ry="2.5"/><text x="326.936" y="638.995" fill="#000" font-size="14" textLength="131.168" font-weight="700">PKG-10 Platform</text></g><!--cluster PKG-11 Self-Service--><g class="cluster" data-qualified-name="PKG-11 Self-Service" id="ent0016" data-source-line="21"><rect x="306.04" y="1118" width="172.96" height="99" fill="none" style="stroke:#181818;stroke-width:1;" rx="2.5" ry="2.5"/><text x="313.896" y="1132.995" fill="#000" font-size="14" textLength="157.247" font-weight="700">PKG-11 Self-Service</text></g><!--cluster PKG-DP Data Protection--><g class="cluster" data-qualified-name="PKG-DP Data Protection" id="ent0018" data-source-line="24"><rect x="290.03" y="501" width="204.98" height="99" fill="none" style="stroke:#181818;stroke-width:1;" rx="2.5" ry="2.5"/><text x="297.723" y="515.995" fill="#000" font-size="14" textLength="189.595" font-weight="700">PKG-DP Data Protection</text></g><!--cluster PKG-SEC Security Operations--><g class="cluster" data-qualified-name="PKG-SEC Security Operations" id="ent0020" data-source-line="27"><rect x="269.87" y="7" width="245.29" height="99" fill="none" style="stroke:#181818;stroke-width:1;" rx="2.5" ry="2.5"/><text x="277.203" y="21.995" fill="#000" font-size="14" textLength="230.624" font-weight="700">PKG-SEC Security Operations</text></g><!--cluster PKG-IAM Identity & Access--><g class="cluster" data-qualified-name="PKG-IAM Identity . Access" id="ent0022" data-source-line="30"><rect x="279.47" y="253" width="225.1" height="99" fill="none" style="stroke:#181818;stroke-width:1;" rx="2.5" ry="2.5"/><text x="286.613" y="267.995" fill="#000" font-size="14" textLength="210.813" font-weight="700">PKG-IAM Identity &amp; Access</text></g><!--cluster PKG-DEV Secure Development--><g class="cluster" data-qualified-name="PKG-DEV Secure Development" id="ent0024" data-source-line="33"><rect x="264.8" y="130" width="254.43" height="99" fill="none" style="stroke:#181818;stroke-width:1;" rx="2.5" ry="2.5"/><text x="272.345" y="144.995" fill="#000" font-size="14" textLength="239.34" font-weight="700">PKG-DEV Secure Development</text></g><!--cluster PKG-GOV Governance & Compliance--><g class="cluster" data-qualified-name="PKG-GOV Governance . Compliance" id="ent0026" data-source-line="36"><rect x="242.08" y="376" width="299.87" height="101" fill="none" style="stroke:#181818;stroke-width:1;" rx="2.5" ry="2.5"/><text x="249.722" y="390.995" fill="#000" font-size="14" textLength="284.587" font-weight="700">PKG-GOV Governance &amp; Compliance</text></g><!--entity P7--><g class="entity" data-qualified-name="PKG-7 Account . Access.P7" id="ent0009" data-source-line="10"><ellipse cx="392.015" cy="807.998" rx="81.845" ry="23.598" fill="#F1F1F1" style="stroke:#181818;stroke-width:0.5;"/><text x="373.1" y="800.798" fill="#000" font-size="14" textLength="37.83">U.C.7</text><text x="329.634" y="817.095" fill="#000" font-size="14" textLength="124.763">Account &amp; Access</text></g><!--entity P8--><g class="entity" data-qualified-name="PKG-8 Team . Task Core.P8" id="ent0011" data-source-line="13"><ellipse cx="392.018" cy="931.004" rx="84.398" ry="23.584" fill="#F1F1F1" style="stroke:#181818;stroke-width:0.5;"/><text x="373.103" y="923.78" fill="#000" font-size="14" textLength="37.83">U.C.8</text><text x="327.572" y="940.077" fill="#000" font-size="14" textLength="128.892">Team &amp; Task Core</text></g><!--entity P9--><g class="entity" data-qualified-name="PKG-9 Collaboration.P9" id="ent0013" data-source-line="16"><ellipse cx="392.025" cy="1054" rx="62.485" ry="23.78" fill="#F1F1F1" style="stroke:#181818;stroke-width:0.5;"/><text x="373.11" y="1047.095" fill="#000" font-size="14" textLength="37.83">U.C.9</text><text x="345.373" y="1063.392" fill="#000" font-size="14" textLength="93.304">Collaboration</text></g><!--entity P10--><g class="entity" data-qualified-name="PKG-10 Platform.P10" id="ent0015" data-source-line="19"><ellipse cx="392.018" cy="684.004" rx="42.988" ry="24.984" fill="#F1F1F1" style="stroke:#181818;stroke-width:0.5;"/><text x="368.65" y="678.961" fill="#000" font-size="14" textLength="46.737">U.C.10</text><text x="362.374" y="695.258" fill="#000" font-size="14" textLength="59.288">Platform</text></g><!--entity P11--><g class="entity" data-qualified-name="PKG-11 Self-Service.P11" id="ent0017" data-source-line="22"><ellipse cx="392.02" cy="1176.999" rx="56.98" ry="24.169" fill="#F1F1F1" style="stroke:#181818;stroke-width:0.5;"/><text x="368.651" y="1170.713" fill="#000" font-size="14" textLength="46.737">U.C.11</text><text x="350.464" y="1187.01" fill="#000" font-size="14" textLength="83.111">Self-Service</text></g><!--entity PDP--><g class="entity" data-qualified-name="PKG-DP Data Protection.PDP" id="ent0019" data-source-line="25"><ellipse cx="392.019" cy="559.999" rx="72.989" ry="23.879" fill="#F1F1F1" style="stroke:#181818;stroke-width:0.5;"/><text x="367.379" y="553.254" fill="#000" font-size="14" textLength="49.28">U.C.1.*</text><text x="337.39" y="569.55" fill="#000" font-size="14" textLength="109.259">Data Protection</text></g><!--entity PSEC--><g class="entity" data-qualified-name="PKG-SEC Security Operations.PSEC" id="ent0021" data-source-line="28"><ellipse cx="392.025" cy="66.003" rx="91.145" ry="23.683" fill="#F1F1F1" style="stroke:#181818;stroke-width:0.5;"/><text x="367.385" y="58.941" fill="#000" font-size="14" textLength="49.28">U.C.2.*</text><text x="322.572" y="75.238" fill="#000" font-size="14" textLength="138.906">Security Operations</text></g><!--entity PIAM--><g class="entity" data-qualified-name="PKG-IAM Identity . Access.PIAM" id="ent0023" data-source-line="31"><ellipse cx="392.021" cy="311.999" rx="80.551" ry="23.779" fill="#F1F1F1" style="stroke:#181818;stroke-width:0.5;"/><text x="367.381" y="305.094" fill="#000" font-size="14" textLength="49.28">U.C.3.*</text><text x="331.199" y="321.39" fill="#000" font-size="14" textLength="121.646">Identity &amp; Access</text></g><!--entity PDEV--><g class="entity" data-qualified-name="PKG-DEV Secure Development.PDEV" id="ent0025" data-source-line="34"><ellipse cx="392.023" cy="188.999" rx="96.213" ry="23.649" fill="#F1F1F1" style="stroke:#181818;stroke-width:0.5;"/><text x="367.383" y="181.881" fill="#000" font-size="14" textLength="49.28">U.C.4.*</text><text x="318.455" y="198.178" fill="#000" font-size="14" textLength="147.137">Secure Development</text></g><!--entity PGOV--><g class="entity" data-qualified-name="PKG-GOV Governance . Compliance.PGOV" id="ent0027" data-source-line="37"><ellipse cx="392.024" cy="435.997" rx="112.934" ry="24.987" fill="#F1F1F1" style="stroke:#181818;stroke-width:0.5;"/><text x="359.752" y="427.776" fill="#000" font-size="14" textLength="64.545">U.C.5.6.1</text><text x="298.56" y="444.072" fill="#000" font-size="14" textLength="186.929">Governance &amp; Compliance</text></g><!--entity USER--><g class="entity" data-qualified-name="USER" id="ent0001" data-source-line="2"><ellipse cx="102.04" cy="962.35" rx="8" ry="8" fill="#F1F1F1" style="stroke:#181818;stroke-width:0.5;"/><path d="M102.04,970.35 L102.04,997.35 M89.04,978.35 L115.04,978.35 M102.04,997.35 L89.04,1012.35 M102.04,997.35 L115.04,1012.35" style="stroke:#181818;stroke-width:0.5;" fill="none"/><text x="48.48" y="1026.845" fill="#000" font-size="14" textLength="107.119">User (Free-tier)</text></g><!--entity ADM--><g class="entity" data-qualified-name="ADM" id="ent0002" data-source-line="3"><ellipse cx="102.042" cy="654.35" rx="8" ry="8" fill="#F1F1F1" style="stroke:#181818;stroke-width:0.5;"/><path d="M102.042,662.35 L102.042,689.35 M89.042,670.35 L115.042,670.35 M102.042,689.35 L89.042,704.35 M102.042,689.35 L115.042,704.35" style="stroke:#181818;stroke-width:0.5;" fill="none"/><text x="13.5" y="718.845" fill="#000" font-size="14" textLength="177.085">Workspace Admin/Owner</text></g><!--entity DPO--><g class="entity" data-qualified-name="DPO" id="ent0003" data-source-line="4"><ellipse cx="102.042" cy="530.35" rx="8" ry="8" fill="#F1F1F1" style="stroke:#181818;stroke-width:0.5;"/><path d="M102.042,538.35 L102.042,565.35 M89.042,546.35 L115.042,546.35 M102.042,565.35 L89.042,580.35 M102.042,565.35 L115.042,580.35" style="stroke:#181818;stroke-width:0.5;" fill="none"/><text x="6" y="594.845" fill="#000" font-size="14" textLength="192.083">DPO / Compliance Manager</text></g><!--entity CTO--><g class="entity" data-qualified-name="CTO" id="ent0004" data-source-line="5"><ellipse cx="102.037" cy="288.35" rx="8" ry="8" fill="#F1F1F1" style="stroke:#181818;stroke-width:0.5;"/><path d="M102.037,296.35 L102.037,323.35 M89.037,304.35 L115.037,304.35 M102.037,323.35 L89.037,338.35 M102.037,323.35 L115.037,338.35" style="stroke:#181818;stroke-width:0.5;" fill="none"/><text x="63.65" y="352.845" fill="#000" font-size="14" textLength="76.774">CTO / CISO</text></g><!--entity DEV--><g class="entity" data-qualified-name="DEV" id="ent0005" data-source-line="6"><ellipse cx="102.046" cy="159.35" rx="8" ry="8" fill="#F1F1F1" style="stroke:#181818;stroke-width:0.5;"/><path d="M102.046,167.35 L102.046,194.35 M89.046,175.35 L115.046,175.35 M102.046,194.35 L89.046,209.35 M102.046,194.35 L115.046,209.35" style="stroke:#181818;stroke-width:0.5;" fill="none"/><text x="46.88" y="223.845" fill="#000" font-size="14" textLength="110.332">Lead Developer</text></g><!--entity OPS--><g class="entity" data-qualified-name="OPS" id="ent0006" data-source-line="7"><ellipse cx="102.037" cy="36.35" rx="8" ry="8" fill="#F1F1F1" style="stroke:#181818;stroke-width:0.5;"/><path d="M102.037,44.35 L102.037,71.35 M89.037,52.35 L115.037,52.35 M102.037,71.35 L89.037,86.35 M102.037,71.35 L115.037,86.35" style="stroke:#181818;stroke-width:0.5;" fill="none"/><text x="44.39" y="100.845" fill="#000" font-size="14" textLength="115.295">Operations Lead</text></g><!--entity RO--><g class="entity" data-qualified-name="RO" id="ent0007" data-source-line="8"><ellipse cx="102.04" cy="406.35" rx="8" ry="8" fill="#F1F1F1" style="stroke:#181818;stroke-width:0.5;"/><path d="M102.04,414.35 L102.04,441.35 M89.04,422.35 L115.04,422.35 M102.04,441.35 L89.04,456.35 M102.04,441.35 L115.04,456.35" style="stroke:#181818;stroke-width:0.5;" fill="none"/><text x="62.45" y="470.845" fill="#000" font-size="14" textLength="79.181">Risk Owner</text></g><!--link USER to P7--><g class="link" data-entity-1="ent0001" data-entity-2="ent0009" id="lnk28" data-source-line="39" data-link-type="association"><path d="M148.94,953.53 C173.47,933.78 204.61,909.96 234.08,891 C271.15,867.16 315.78,844.05 347.95,828.3" style="stroke:#181818;stroke-width:1;" fill="none" id="USER-P7"/></g><!--link USER to P8--><g class="link" data-entity-1="ent0001" data-entity-2="ent0011" id="lnk29" data-source-line="40" data-link-type="association"><path d="M155.86,980.81 C203.11,970.8 272.61,956.08 323.81,945.24" style="stroke:#181818;stroke-width:1;" fill="none" id="USER-P8"/></g><!--link USER to P9--><g class="link" data-entity-1="ent0001" data-entity-2="ent0013" id="lnk30" data-source-line="41" data-link-type="association"><path d="M155.86,1003.37 C207.33,1014.45 285.21,1031.22 337.07,1042.38" style="stroke:#181818;stroke-width:1;" fill="none" id="USER-P9"/></g><!--link USER to P11--><g class="link" data-entity-1="ent0001" data-entity-2="ent0017" id="lnk31" data-source-line="42" data-link-type="association"><path d="M148.59,1030.64 C173.15,1050.65 204.43,1074.82 234.08,1094 C273.04,1119.19 320.43,1143.44 352.87,1159.16" style="stroke:#181818;stroke-width:1;" fill="none" id="USER-P11"/></g><!--link ADM to P10--><g class="link" data-entity-1="ent0002" data-entity-2="ent0015" id="lnk32" data-source-line="43" data-link-type="association"><path d="M191.01,684 C243.44,684 307.62,684 348.9,684" style="stroke:#181818;stroke-width:1;" fill="none" id="ADM-P10"/></g><!--link DPO to PDP--><g class="link" data-entity-1="ent0003" data-entity-2="ent0019" id="lnk33" data-source-line="44" data-link-type="association"><path d="M198.53,560 C237.66,560 282.2,560 318.58,560" style="stroke:#181818;stroke-width:1;" fill="none" id="DPO-PDP"/></g><!--link CTO to PIAM--><g class="link" data-entity-1="ent0004" data-entity-2="ent0023" id="lnk34" data-source-line="45" data-link-type="association"><path d="M140.69,317.22 C183.76,316.32 255.51,314.82 311.18,313.66" style="stroke:#181818;stroke-width:1;" fill="none" id="CTO-PIAM"/></g><!--link CTO to PGOV--><g class="link" data-entity-1="ent0004" data-entity-2="ent0027" id="lnk35" data-source-line="46" data-link-type="association"><path d="M140.69,333.43 C190.77,353.95 279.64,390.36 336.9,413.83" style="stroke:#181818;stroke-width:1;" fill="none" id="CTO-PGOV"/></g><!--link DEV to PDEV--><g class="link" data-entity-1="ent0005" data-entity-2="ent0025" id="lnk36" data-source-line="47" data-link-type="association"><path d="M157.55,189 C196.35,189 249.53,189 295.33,189" style="stroke:#181818;stroke-width:1;" fill="none" id="DEV-PDEV"/></g><!--link OPS to PSEC--><g class="link" data-entity-1="ent0006" data-entity-2="ent0021" id="lnk37" data-source-line="48" data-link-type="association"><path d="M159.94,66 C200.01,66 254.51,66 300.52,66" style="stroke:#181818;stroke-width:1;" fill="none" id="OPS-PSEC"/></g><!--link RO to PGOV--><g class="link" data-entity-1="ent0007" data-entity-2="ent0027" id="lnk38" data-source-line="49" data-link-type="association"><path d="M141.88,436 C176.96,436 230.35,436 278.72,436" style="stroke:#181818;stroke-width:1;" fill="none" id="RO-PGOV"/></g><?plantuml-src TPDDZzem443l-HKZ3gksKhAaNy0H9HIX5YKYG2-vk66WrYOsiWrLLVM_ToOqP1Upjqdc-NbipzIuT-0q67duwM0d3LPEQXM8oca3Wur50s--6CJGIJHl1o0iR8hPgWE-Q_DaZw92cEuQgHwpNmfDIqtJPGUbUGQFaEZcM4kXY5qA9Gx_EKfsNB9kkKMHjHdwx3BVKEmWnJFM-jYjcssxR4R_19TjWS4sdUL5brv9-mHzOQiiu5CATQWH1ldNUJY2QLNfatBmm15QEu0_mSbY9ImXcoY9HgNo6PBbe-3lhMuCQnGDSMj16oVQeASRbyfdM3VsTHDArxNueIzdz5oJKjq0B9huedW8UItSNfl6ayJ3KlL95iJ3EuOO2gptOO7cB2l_M75SgfT0QufzKvf3Afo0t6XtQJbV5hqhbGUnCCrzOJ5BgBRgPAJx3Nr3UDRtRBqBifaildenNS9YXyhnYbSxv0EBxs2i9SETAvXjBnLZrzaDBVQy7wy5tt3jJT0GUE9vjeMvFgDHxR0zF9iyp_uf-XpHexsAyoRaeqruwY4CkUEluRWF9tr8xqt3Vmc70Gy_X_HeFDySydLqCSlv9bg4JaDpsyRy4gihyWy0?></g></svg>