<svg xmlns="http://www.w3.org/2000/svg" xmlns:xlink="http://www.w3.org/1999/xlink" version="1.1" data-diagram-type="DESCRIPTION" style="width:402px;height:479px;background:#FFFFFF;" width="402px" height="479px" viewBox="0 0 402 479" zoomAndPan="magnify" preserveAspectRatio="none" contentStyleType="text/css"><?plantuml 1.2026.8beta1?><defs/><g font-family="sans-serif" lengthAdjust="spacing"><!--cluster PKG-9 Collaboration--><g class="cluster" data-qualified-name="PKG-9 Collaboration" id="ent0002" data-source-line="3"><rect x="110.59" y="7" width="277.93" height="458" fill="none" style="stroke:#181818;stroke-width:1;" rx="2.5" ry="2.5"/><text x="170.039" y="21.995" fill="#000" font-size="14" textLength="159.031" font-weight="700">PKG-9 Collaboration</text></g><!--entity UC911--><g class="entity" data-qualified-name="PKG-9 Collaboration.UC911" id="ent0003" data-source-line="4"><ellipse cx="249.551" cy="66.005" rx="85.181" ry="24.015" fill="#F1F1F1" style="stroke:#181818;stroke-width:0.5;"/><text x="217.278" y="59.475" fill="#000" font-size="14" textLength="64.545">U.C.9.1.1</text><text x="185.819" y="75.772" fill="#000" font-size="14" textLength="127.463">Comment on Task</text></g><!--entity UC921--><g class="entity" data-qualified-name="PKG-9 Collaboration.UC921" id="ent0004" data-source-line="5"><ellipse cx="249.555" cy="169.003" rx="122.965" ry="26.993" fill="#F1F1F1" style="stroke:#181818;stroke-width:0.5;"/><text x="217.282" y="158.691" fill="#000" font-size="14" textLength="64.545">U.C.9.2.1</text><text x="139.363" y="174.988" fill="#000" font-size="14" textLength="220.384">@Mention &amp; In-App Notification</text></g><!--entity UC931--><g class="entity" data-qualified-name="PKG-9 Collaboration.UC931" id="ent0005" data-source-line="6"><ellipse cx="249.548" cy="254.998" rx="86.768" ry="23.988" fill="#F1F1F1" style="stroke:#181818;stroke-width:0.5;"/><text x="217.276" y="248.427" fill="#000" font-size="14" textLength="64.545">U.C.9.3.1</text><text x="184.504" y="264.724" fill="#000" font-size="14" textLength="130.088">Attach File to Task</text></g><!--entity UC941--><g class="entity" data-qualified-name="PKG-9 Collaboration.UC941" id="ent0006" data-source-line="7"><ellipse cx="249.549" cy="338.004" rx="97.769" ry="23.844" fill="#F1F1F1" style="stroke:#181818;stroke-width:0.5;"/><text x="217.276" y="331.203" fill="#000" font-size="14" textLength="64.545">U.C.9.4.1</text><text x="175.454" y="347.5" fill="#000" font-size="14" textLength="148.189">Search &amp; Filter Tasks</text></g><!--entity UC951--><g class="entity" data-qualified-name="PKG-9 Collaboration.UC951" id="ent0007" data-source-line="8"><ellipse cx="249.553" cy="423.003" rx="117.613" ry="25.923" fill="#F1F1F1" style="stroke:#181818;stroke-width:0.5;"/><text x="217.281" y="413.804" fill="#000" font-size="14" textLength="64.545">U.C.9.5.1</text><text x="147.927" y="430.101" fill="#000" font-size="14" textLength="203.253">Activity Feed (recent events)</text></g><!--entity MEM--><g class="entity" data-qualified-name="MEM" id="ent0001" data-source-line="2"><ellipse cx="34.793" cy="225.35" rx="8" ry="8" fill="#F1F1F1" style="stroke:#181818;stroke-width:0.5;"/><path d="M34.793,233.35 L34.793,260.35 M21.793,241.35 L47.793,241.35 M34.793,260.35 L21.793,275.35 M34.793,260.35 L47.793,275.35" style="stroke:#181818;stroke-width:0.5;" fill="none"/><text x="6" y="289.845" fill="#000" font-size="14" textLength="57.586">Member</text></g><!--link MEM to UC911--><g class="link" data-entity-1="ent0001" data-entity-2="ent0003" id="lnk8" data-source-line="10" data-link-type="association"><path d="M47.36,216.57 C57.72,187.96 75.51,149.73 102.59,125 C125.19,104.35 155.95,90.48 183.41,81.41" style="stroke:#181818;stroke-width:1;" fill="none" id="MEM-UC911"/></g><!--link MEM to UC921--><g class="link" data-entity-1="ent0001" data-entity-2="ent0004" id="lnk9" data-source-line="11" data-link-type="association"><path d="M63.85,235.6 C75.48,228.15 89.32,220 102.59,214 C123.49,204.55 146.93,196.34 168.8,189.63" style="stroke:#181818;stroke-width:1;" fill="none" id="MEM-UC921"/></g><!--link MEM to UC931--><g class="link" data-entity-1="ent0001" data-entity-2="ent0005" id="lnk10" data-source-line="12" data-link-type="association"><path d="M64.05,255 C89.25,255 127.5,255 162.65,255" style="stroke:#181818;stroke-width:1;" fill="none" id="MEM-UC931"/></g><!--link MEM to UC941--><g class="link" data-entity-1="ent0001" data-entity-2="ent0006" id="lnk11" data-source-line="13" data-link-type="association"><path d="M63.8,274.53 C75.41,282 89.26,290.13 102.59,296 C126.23,306.43 153.16,315.03 177.4,321.67" style="stroke:#181818;stroke-width:1;" fill="none" id="MEM-UC941"/></g><!--link MEM to UC951--><g class="link" data-entity-1="ent0001" data-entity-2="ent0007" id="lnk12" data-source-line="14" data-link-type="association"><path d="M47.62,293.51 C57.96,321.04 75.6,356.96 102.59,379 C117.96,391.55 136.86,400.53 155.89,406.95" style="stroke:#181818;stroke-width:1;" fill="none" id="MEM-UC951"/></g><!--link UC911 to UC921--><g class="link" data-entity-1="ent0003" data-entity-2="ent0004" id="lnk13" data-source-line="15" data-link-type="dependency"><path d="M249.55,90.29 C249.55,105.71 249.55,120.7 249.55,136.67" style="stroke:#181818;stroke-width:1;stroke-dasharray:7,7;" fill="none" id="UC911-to-UC921"/><polygon points="249.55,141.67,253.55,132.67,249.55,136.67,245.55,132.67,249.55,141.67" fill="#181818" style="stroke:#181818;stroke-width:1;stroke-linejoin:miter;stroke-miterlimit:10;"/><text x="206.55" y="120.577" fill="#000" font-size="13" textLength="63.007">«include»</text></g><?plantuml-src PT3DQiCm303Wkvz2v52sGmBvwI6ZX9MmZZ4o1bjlkxYEsfebTh7LmXXxzybfoy9oCGZfaonrk2KW2qxlzWIjTgX8MoEa8kiWQh3Ve8j0UcWU6X6oqkmwXEZr-J4keRPT9pVMoO0Y-1P7Zqfwpg-JEYcJD4a_J6tx7Ws1DV0k_UVGRLsNQVg_EWlLzmtNSZUOmPE9buS3l5ZIMwqkCyuuc-0yu2MHL7jOQVuYRpKUbqz44SGRIiTY5WoX6uY_cc9YviCKlj59qnUi45kuuQk4zV34hx-zsdagVWGV3UBuikrVa8s3V1mKuu1R31AIwgpW3XOBRLHtRB6gVW40?></g></svg>