<svg xmlns="http://www.w3.org/2000/svg" xmlns:xlink="http://www.w3.org/1999/xlink" version="1.1" data-diagram-type="DESCRIPTION" style="width:401px;height:475px;background:#FFFFFF;" width="401px" height="475px" viewBox="0 0 401 475" zoomAndPan="magnify" preserveAspectRatio="none" contentStyleType="text/css"><?plantuml 1.2026.8beta1?><defs/><g font-family="sans-serif" lengthAdjust="spacing"><!--cluster PKG-9 Collaboration--><g class="cluster" data-qualified-name="PKG-9 Collaboration" id="ent0002" data-source-line="3"><rect x="110.59" y="7" width="276.54" height="454" fill="none" style="stroke:#181818;stroke-width:1;" rx="2.5" ry="2.5"/><text x="169.344" y="21.995" fill="#000" font-size="14" textLength="159.031" font-weight="700">PKG-9 Collaboration</text></g><!--entity UC911--><g class="entity" data-qualified-name="PKG-9 Collaboration.UC911" id="ent0003" data-source-line="4"><ellipse cx="248.86" cy="66.001" rx="83.76" ry="23.651" fill="#F1F1F1" style="stroke:#181818;stroke-width:0.5;"/><text x="227.415" y="58.888" fill="#000" font-size="14" textLength="42.889">UC-29</text><text x="185.128" y="75.185" fill="#000" font-size="14" textLength="127.463">Comment on Task</text></g><!--entity UC921--><g class="entity" data-qualified-name="PKG-9 Collaboration.UC921" id="ent0004" data-source-line="5"><ellipse cx="248.86" cy="168.004" rx="122.27" ry="26.854" fill="#F1F1F1" style="stroke:#181818;stroke-width:0.5;"/><text x="227.416" y="157.336" fill="#000" font-size="14" textLength="42.889">UC-30</text><text x="138.669" y="173.632" fill="#000" font-size="14" textLength="220.384">@Mention &amp; In-App Notification</text></g><!--entity UC931--><g class="entity" data-qualified-name="PKG-9 Collaboration.UC931" id="ent0005" data-source-line="6"><ellipse cx="248.858" cy="253" rx="85.378" ry="23.64" fill="#F1F1F1" style="stroke:#181818;stroke-width:0.5;"/><text x="227.413" y="245.868" fill="#000" font-size="14" textLength="42.889">UC-31</text><text x="183.814" y="262.165" fill="#000" font-size="14" textLength="130.088">Attach File to Task</text></g><!--entity UC941--><g class="entity" data-qualified-name="PKG-9 Collaboration.UC941" id="ent0006" data-source-line="7"><ellipse cx="248.858" cy="334.998" rx="96.558" ry="23.578" fill="#F1F1F1" style="stroke:#181818;stroke-width:0.5;"/><text x="227.413" y="327.765" fill="#000" font-size="14" textLength="42.889">UC-32</text><text x="174.763" y="344.062" fill="#000" font-size="14" textLength="148.189">Search &amp; Filter Tasks</text></g><!--entity UC951--><g class="entity" data-qualified-name="PKG-9 Collaboration.UC951" id="ent0007" data-source-line="8"><ellipse cx="248.859" cy="419" rx="116.799" ry="25.76" fill="#F1F1F1" style="stroke:#181818;stroke-width:0.5;"/><text x="227.415" y="409.445" fill="#000" font-size="14" textLength="42.889">UC-33</text><text x="147.233" y="425.742" fill="#000" font-size="14" textLength="203.253">Activity Feed (recent events)</text></g><!--entity MEM--><g class="entity" data-qualified-name="MEM" id="ent0001" data-source-line="2"><ellipse cx="34.793" cy="223.35" rx="8" ry="8" fill="#F1F1F1" style="stroke:#181818;stroke-width:0.5;"/><path d="M34.793,231.35 L34.793,258.35 M21.793,239.35 L47.793,239.35 M34.793,258.35 L21.793,273.35 M34.793,258.35 L47.793,273.35" style="stroke:#181818;stroke-width:0.5;" fill="none"/><text x="6" y="287.845" fill="#000" font-size="14" textLength="57.586">Member</text></g><!--link MEM to UC911--><g class="link" data-entity-1="ent0001" data-entity-2="ent0003" id="lnk8" data-source-line="10" data-link-type="association"><path d="M47.51,214.54 C57.91,186.16 75.68,148.39 102.59,124 C125.12,103.57 155.74,89.92 183.06,81.02" style="stroke:#181818;stroke-width:1;" fill="none" id="MEM-UC911"/></g><!--link MEM to UC921--><g class="link" data-entity-1="ent0001" data-entity-2="ent0004" id="lnk9" data-source-line="11" data-link-type="association"><path d="M63.84,233.56 C75.46,226.11 89.31,217.97 102.59,212 C123.02,202.82 145.9,194.88 167.34,188.38" style="stroke:#181818;stroke-width:1;" fill="none" id="MEM-UC921"/></g><!--link MEM to UC931--><g class="link" data-entity-1="ent0001" data-entity-2="ent0005" id="lnk10" data-source-line="12" data-link-type="association"><path d="M63.95,253 C89.3,253 127.89,253 163.18,253" style="stroke:#181818;stroke-width:1;" fill="none" id="MEM-UC931"/></g><!--link MEM to UC941--><g class="link" data-entity-1="ent0001" data-entity-2="ent0006" id="lnk11" data-source-line="13" data-link-type="association"><path d="M63.78,272.56 C75.39,280.04 89.25,288.16 102.59,294 C125.99,304.25 152.64,312.64 176.67,319.1" style="stroke:#181818;stroke-width:1;" fill="none" id="MEM-UC941"/></g><!--link MEM to UC951--><g class="link" data-entity-1="ent0001" data-entity-2="ent0007" id="lnk12" data-source-line="14" data-link-type="association"><path d="M47.78,291.53 C58.15,318.82 75.77,354.29 102.59,376 C117.82,388.33 136.48,397.12 155.3,403.4" style="stroke:#181818;stroke-width:1;" fill="none" id="MEM-UC951"/></g><!--link UC911 to UC921--><g class="link" data-entity-1="ent0003" data-entity-2="ent0004" id="lnk13" data-source-line="15" data-link-type="dependency"><path d="M248.86,89.93 C248.86,105.13 248.86,119.85 248.86,135.67" style="stroke:#181818;stroke-width:1;stroke-dasharray:7,7;" fill="none" id="UC911-to-UC921"/><polygon points="248.86,140.67,252.86,131.67,248.86,135.67,244.86,131.67,248.86,140.67" fill="#181818" style="stroke:#181818;stroke-width:1;stroke-linejoin:miter;stroke-miterlimit:10;"/><text x="205.86" y="119.967" fill="#000" font-size="13" textLength="63.007">«include»</text></g><?plantuml-src NP11IyD048Nl-ok678eU8YQfXqW9bj2AI4JGtdBPRgRjqirksPqMHFplJj8MOouBZ_dUstbZS4D03hpUxWWQxL6HTbP8HSv3L66xHX-1350jAj5DfTqQXEZzzJdEeNJ6oBNpiZD5y2sE0PKCF5-LSPhNjdHjYvR0MVYKOTydhSeyIVwHsNrjdohcE0Kcy6BZ-U40RuxqHgjBzjcOZen9RUT4KkrWgNajRZBy9XlHQMq_K7gc9nrFw7iyNFdfYCyudUznqlG5IyG6RlW2NHqyyHjkhxw7HFm8FX34yQNTdqY78XkAwL1mHE-4k-BiWaUOpRHLvjXWKVm2?></g></svg>