<svg xmlns="http://www.w3.org/2000/svg" xmlns:xlink="http://www.w3.org/1999/xlink" version="1.1" data-diagram-type="DESCRIPTION" style="width:450px;height:471px;background:#FFFFFF;" width="450px" height="471px" viewBox="0 0 450 471" zoomAndPan="magnify" preserveAspectRatio="none" contentStyleType="text/css"><?plantuml 1.2026.8beta1?><defs/><g font-family="sans-serif" lengthAdjust="spacing"><!--cluster PKG-IAM Identity & Access--><g class="cluster" data-qualified-name="PKG-IAM Identity . Access" id="ent0004" data-source-line="5"><rect x="165.29" y="7" width="271.23" height="439" fill="none" style="stroke:#181818;stroke-width:1;" rx="2.5" ry="2.5"/><text x="195.498" y="21.995" fill="#000" font-size="14" textLength="210.813" font-weight="700">PKG-IAM Identity &amp; Access</text></g><!--entity UC311--><g class="entity" data-qualified-name="PKG-IAM Identity . Access.UC311" id="ent0005" data-source-line="6"><ellipse cx="300.913" cy="322.999" rx="92.253" ry="23.909" fill="#F1F1F1" style="stroke:#181818;stroke-width:0.5;"/><text x="268.641" y="316.302" fill="#000" font-size="14" textLength="64.545">U.C.3.1.1</text><text x="231.347" y="332.598" fill="#000" font-size="14" textLength="139.132">User Authentication</text></g><!--entity UC312--><g class="entity" data-qualified-name="PKG-IAM Identity . Access.UC312" id="ent0006" data-source-line="7"><ellipse cx="300.908" cy="155" rx="115.348" ry="25.47" fill="#F1F1F1" style="stroke:#181818;stroke-width:0.5;"/><text x="268.636" y="146.274" fill="#000" font-size="14" textLength="64.545">U.C.3.1.2</text><text x="203.144" y="162.571" fill="#000" font-size="14" textLength="195.528">MFA for Privileged Accounts</text></g><!--entity UC321--><g class="entity" data-qualified-name="PKG-IAM Identity . Access.UC321" id="ent0007" data-source-line="8"><ellipse cx="300.912" cy="68.002" rx="119.612" ry="26.322" fill="#F1F1F1" style="stroke:#181818;stroke-width:0.5;"/><text x="268.639" y="58.388" fill="#000" font-size="14" textLength="64.545">U.C.3.2.1</text><text x="196.001" y="74.685" fill="#000" font-size="14" textLength="209.822">Authorisation / Least Privilege</text></g><!--entity UC331--><g class="entity" data-qualified-name="PKG-IAM Identity . Access.UC331" id="ent0008" data-source-line="9"><ellipse cx="300.907" cy="406.003" rx="108.017" ry="24.003" fill="#F1F1F1" style="stroke:#181818;stroke-width:0.5;"/><text x="268.635" y="398.813" fill="#000" font-size="14" textLength="64.545">U.C.3.3.1</text><text x="216.911" y="415.11" fill="#000" font-size="14" textLength="167.993">Secure System Defaults</text></g><!--entity UC351--><g class="entity" data-qualified-name="PKG-IAM Identity . Access.UC351" id="ent0009" data-source-line="10"><ellipse cx="300.914" cy="240.003" rx="66.964" ry="24.503" fill="#F1F1F1" style="stroke:#181818;stroke-width:0.5;"/><text x="268.641" y="234.235" fill="#000" font-size="14" textLength="64.545">U.C.3.5.1</text><text x="252.436" y="250.531" fill="#000" font-size="14" textLength="96.954">Audit Logging</text></g><!--entity CTO--><g class="entity" data-qualified-name="CTO" id="ent0001" data-source-line="2"><ellipse cx="63.647" cy="154.35" rx="8" ry="8" fill="#F1F1F1" style="stroke:#181818;stroke-width:0.5;"/><path d="M63.647,162.35 L63.647,189.35 M50.647,170.35 L76.647,170.35 M63.647,189.35 L50.647,204.35 M63.647,189.35 L76.647,204.35" style="stroke:#181818;stroke-width:0.5;" fill="none"/><text x="25.26" y="218.845" fill="#000" font-size="14" textLength="76.774">CTO / CISO</text></g><!--entity OPS--><g class="entity" data-qualified-name="OPS" id="ent0002" data-source-line="3"><ellipse cx="63.647" cy="390.35" rx="8" ry="8" fill="#F1F1F1" style="stroke:#181818;stroke-width:0.5;"/><path d="M63.647,398.35 L63.647,425.35 M50.647,406.35 L76.647,406.35 M63.647,425.35 L50.647,440.35 M63.647,425.35 L76.647,440.35" style="stroke:#181818;stroke-width:0.5;" fill="none"/><text x="6" y="454.845" fill="#000" font-size="14" textLength="115.295">Operations Lead</text></g><!--entity MEM--><g class="entity" data-qualified-name="MEM" id="ent0003" data-source-line="4"><ellipse cx="63.643" cy="279.35" rx="8" ry="8" fill="#F1F1F1" style="stroke:#181818;stroke-width:0.5;"/><path d="M63.643,287.35 L63.643,314.35 M50.643,295.35 L76.643,295.35 M63.643,314.35 L50.643,329.35 M63.643,314.35 L76.643,329.35" style="stroke:#181818;stroke-width:0.5;" fill="none"/><text x="34.85" y="343.845" fill="#000" font-size="14" textLength="57.586">Member</text></g><!--link MEM to UC311--><g class="link" data-entity-1="ent0003" data-entity-2="ent0005" id="lnk10" data-source-line="12" data-link-type="association"><path d="M92.56,310.66 C121.59,312.39 168.56,315.18 210.47,317.68" style="stroke:#181818;stroke-width:1;" fill="none" id="MEM-UC311"/></g><!--link CTO to UC311--><g class="link" data-entity-1="ent0001" data-entity-2="ent0005" id="lnk11" data-source-line="13" data-link-type="association"><path d="M97.21,222.44 C118.02,246.18 143.59,273.66 157.29,282 C177.65,294.39 201.92,303.18 224.61,309.35" style="stroke:#181818;stroke-width:1;" fill="none" id="CTO-UC311"/></g><!--link CTO to UC312--><g class="link" data-entity-1="ent0001" data-entity-2="ent0006" id="lnk12" data-source-line="14" data-link-type="association"><path d="M102.45,179.34 C128.68,176.11 164.95,171.64 199.26,167.41" style="stroke:#181818;stroke-width:1;" fill="none" id="CTO-UC312"/></g><!--link CTO to UC321--><g class="link" data-entity-1="ent0001" data-entity-2="ent0007" id="lnk13" data-source-line="15" data-link-type="association"><path d="M102.17,149.82 C118.24,136.56 137.78,122.16 157.29,112 C176.37,102.07 198.07,93.95 218.68,87.52" style="stroke:#181818;stroke-width:1;" fill="none" id="CTO-UC321"/></g><!--link CTO to UC351--><g class="link" data-entity-1="ent0001" data-entity-2="ent0009" id="lnk14" data-source-line="16" data-link-type="association"><path d="M102.45,193 C140.76,202.12 200.48,216.33 244.21,226.74" style="stroke:#181818;stroke-width:1;" fill="none" id="CTO-UC351"/></g><!--link OPS to UC331--><g class="link" data-entity-1="ent0002" data-entity-2="ent0008" id="lnk15" data-source-line="17" data-link-type="association"><path d="M121.6,416.61 C144.04,415.28 170.53,413.7 196.14,412.18" style="stroke:#181818;stroke-width:1;" fill="none" id="OPS-UC331"/></g><?plantuml-src RP7DReCm48JlFCMAGszG6PG7GFH7g44WKMwvk6PnB16xifTAKTLthqr34vKUnpipdzUUS2GW0rR98y6WB0fIHaTSaB4GbwyDt4DPTKqCt86NwwHvHyk3rS4U-R2CcxPRnpMUtj0kf_LZ7OLQhkM44BSlpqbLr50Dg4dH6UwW40ATY-4pcXqAxhohJyiqJrdA3hftQA6OwHZyOc4klNsPCxPDP0TTFnKm-bkqLdse2IKE0M5cJUutcVrDPe4LCCOgjr3yvdurHzUUDPrjk7b8ToXcYz2T7U497d3aytH5vflGxWSvA8AzaL9fkNftBFgA_CD1abps33_ndyXkH7OxyHN-FouYPzy0?></g></svg>